<mxfile host="app.diagrams.net" modified="2020-11-19T06:03:07.092Z" agent="5.0 (Macintosh; Intel Mac OS X 10_15_6) AppleWebKit/605.1.15 (KHTML, like Gecko) Version/14.0 Safari/605.1.15" etag="qDkpKe1qlrfONil_jZL-" version="13.10.0" type="github">
  <diagram id="Jh7epqOzoAaPqQUxQca5" name="Page-1">
    <mxGraphModel dx="786" dy="573" grid="1" gridSize="10" guides="1" tooltips="1" connect="1" arrows="1" fold="1" page="1" pageScale="1" pageWidth="827" pageHeight="1169" math="0" shadow="0">
      <root>
        <mxCell id="0" />
        <mxCell id="1" parent="0" />
        <mxCell id="z9bAfdmkYlqTCzIjONIZ-1" value="" style="group;fontSize=16;" vertex="1" connectable="0" parent="1">
          <mxGeometry x="180" y="1080" width="120" height="210" as="geometry" />
        </mxCell>
        <mxCell id="z9bAfdmkYlqTCzIjONIZ-2" value="&lt;font style=&quot;font-size: 16px&quot;&gt;4&lt;/font&gt;" style="rounded=0;whiteSpace=wrap;html=1;strokeColor=#000000;fillColor=#ffffff;gradientColor=none;" vertex="1" parent="z9bAfdmkYlqTCzIjONIZ-1">
          <mxGeometry x="25" y="50" width="70" height="40" as="geometry" />
        </mxCell>
        <mxCell id="z9bAfdmkYlqTCzIjONIZ-3" value="" style="rounded=0;whiteSpace=wrap;html=1;strokeColor=#000000;fillColor=#ffffff;gradientColor=none;fontSize=16;" vertex="1" parent="z9bAfdmkYlqTCzIjONIZ-1">
          <mxGeometry x="25" y="90" width="70" height="40" as="geometry" />
        </mxCell>
        <mxCell id="z9bAfdmkYlqTCzIjONIZ-4" value="14" style="rounded=0;whiteSpace=wrap;html=1;strokeColor=#000000;fillColor=#ffffff;gradientColor=none;fontSize=16;" vertex="1" parent="z9bAfdmkYlqTCzIjONIZ-1">
          <mxGeometry x="25" y="130" width="70" height="40" as="geometry" />
        </mxCell>
        <mxCell id="z9bAfdmkYlqTCzIjONIZ-5" value="" style="rounded=0;whiteSpace=wrap;html=1;strokeColor=#000000;fillColor=#ffffff;gradientColor=none;" vertex="1" parent="z9bAfdmkYlqTCzIjONIZ-1">
          <mxGeometry x="25" y="170" width="70" height="40" as="geometry" />
        </mxCell>
        <mxCell id="z9bAfdmkYlqTCzIjONIZ-6" value="&lt;div style=&quot;font-size: 16px&quot;&gt;&lt;b&gt;Table 1&lt;/b&gt;&lt;/div&gt;" style="text;html=1;strokeColor=none;fillColor=none;align=center;verticalAlign=middle;whiteSpace=wrap;rounded=0;" vertex="1" parent="z9bAfdmkYlqTCzIjONIZ-1">
          <mxGeometry width="120" height="20" as="geometry" />
        </mxCell>
        <mxCell id="z9bAfdmkYlqTCzIjONIZ-7" value="" style="group;fontSize=16;" vertex="1" connectable="0" parent="1">
          <mxGeometry x="415" y="1080" width="120" height="210" as="geometry" />
        </mxCell>
        <mxCell id="z9bAfdmkYlqTCzIjONIZ-8" value="" style="rounded=0;whiteSpace=wrap;html=1;strokeColor=#000000;fillColor=#ffffff;gradientColor=none;fontSize=16;" vertex="1" parent="z9bAfdmkYlqTCzIjONIZ-7">
          <mxGeometry x="25" y="50" width="70" height="40" as="geometry" />
        </mxCell>
        <mxCell id="z9bAfdmkYlqTCzIjONIZ-9" value="" style="rounded=0;whiteSpace=wrap;html=1;strokeColor=#000000;fillColor=#ffffff;gradientColor=none;fontSize=16;" vertex="1" parent="z9bAfdmkYlqTCzIjONIZ-7">
          <mxGeometry x="25" y="90" width="70" height="40" as="geometry" />
        </mxCell>
        <mxCell id="z9bAfdmkYlqTCzIjONIZ-10" value="" style="rounded=0;whiteSpace=wrap;html=1;strokeColor=#000000;fillColor=#ffffff;gradientColor=none;fontSize=16;" vertex="1" parent="z9bAfdmkYlqTCzIjONIZ-7">
          <mxGeometry x="25" y="130" width="70" height="40" as="geometry" />
        </mxCell>
        <mxCell id="z9bAfdmkYlqTCzIjONIZ-11" value="" style="rounded=0;whiteSpace=wrap;html=1;strokeColor=#000000;fillColor=#ffffff;gradientColor=none;fontSize=16;" vertex="1" parent="z9bAfdmkYlqTCzIjONIZ-7">
          <mxGeometry x="25" y="170" width="70" height="40" as="geometry" />
        </mxCell>
        <mxCell id="z9bAfdmkYlqTCzIjONIZ-12" value="&lt;div style=&quot;font-size: 16px&quot;&gt;&lt;b&gt;Table 2&lt;/b&gt;&lt;/div&gt;" style="text;html=1;strokeColor=none;fillColor=none;align=center;verticalAlign=middle;whiteSpace=wrap;rounded=0;" vertex="1" parent="z9bAfdmkYlqTCzIjONIZ-7">
          <mxGeometry width="120" height="20" as="geometry" />
        </mxCell>
        <mxCell id="z9bAfdmkYlqTCzIjONIZ-13" value="" style="group;fontSize=16;" vertex="1" connectable="0" parent="1">
          <mxGeometry x="180" y="1310" width="120" height="210" as="geometry" />
        </mxCell>
        <mxCell id="z9bAfdmkYlqTCzIjONIZ-14" value="&lt;font style=&quot;font-size: 16px&quot;&gt;4&lt;/font&gt;" style="rounded=0;whiteSpace=wrap;html=1;strokeColor=#000000;fillColor=#ffffff;gradientColor=none;" vertex="1" parent="z9bAfdmkYlqTCzIjONIZ-13">
          <mxGeometry x="25" y="50" width="70" height="40" as="geometry" />
        </mxCell>
        <mxCell id="z9bAfdmkYlqTCzIjONIZ-15" value="" style="rounded=0;whiteSpace=wrap;html=1;strokeColor=#000000;fillColor=#ffffff;gradientColor=none;fontSize=16;" vertex="1" parent="z9bAfdmkYlqTCzIjONIZ-13">
          <mxGeometry x="25" y="90" width="70" height="40" as="geometry" />
        </mxCell>
        <mxCell id="z9bAfdmkYlqTCzIjONIZ-16" value="14" style="rounded=0;whiteSpace=wrap;html=1;strokeColor=#000000;fillColor=#ffffff;gradientColor=none;fontSize=16;" vertex="1" parent="z9bAfdmkYlqTCzIjONIZ-13">
          <mxGeometry x="25" y="130" width="70" height="40" as="geometry" />
        </mxCell>
        <mxCell id="z9bAfdmkYlqTCzIjONIZ-17" value="" style="rounded=0;whiteSpace=wrap;html=1;strokeColor=#000000;fillColor=#ffffff;gradientColor=none;" vertex="1" parent="z9bAfdmkYlqTCzIjONIZ-13">
          <mxGeometry x="25" y="170" width="70" height="40" as="geometry" />
        </mxCell>
        <mxCell id="z9bAfdmkYlqTCzIjONIZ-18" value="&lt;div style=&quot;font-size: 16px&quot;&gt;&lt;b&gt;Table 1&lt;/b&gt;&lt;/div&gt;" style="text;html=1;strokeColor=none;fillColor=none;align=center;verticalAlign=middle;whiteSpace=wrap;rounded=0;" vertex="1" parent="z9bAfdmkYlqTCzIjONIZ-13">
          <mxGeometry width="120" height="20" as="geometry" />
        </mxCell>
        <mxCell id="z9bAfdmkYlqTCzIjONIZ-19" value="" style="group;fontSize=16;" vertex="1" connectable="0" parent="1">
          <mxGeometry x="415" y="1310" width="120" height="210" as="geometry" />
        </mxCell>
        <mxCell id="z9bAfdmkYlqTCzIjONIZ-20" value="" style="rounded=0;whiteSpace=wrap;html=1;strokeColor=#000000;fillColor=#ffffff;gradientColor=none;fontSize=16;" vertex="1" parent="z9bAfdmkYlqTCzIjONIZ-19">
          <mxGeometry x="25" y="50" width="70" height="40" as="geometry" />
        </mxCell>
        <mxCell id="z9bAfdmkYlqTCzIjONIZ-21" value="" style="rounded=0;whiteSpace=wrap;html=1;strokeColor=#000000;fillColor=#ffffff;gradientColor=none;fontSize=16;" vertex="1" parent="z9bAfdmkYlqTCzIjONIZ-19">
          <mxGeometry x="25" y="90" width="70" height="40" as="geometry" />
        </mxCell>
        <mxCell id="z9bAfdmkYlqTCzIjONIZ-22" value="10" style="rounded=0;whiteSpace=wrap;html=1;strokeColor=#000000;fillColor=#ffffff;gradientColor=none;fontSize=16;" vertex="1" parent="z9bAfdmkYlqTCzIjONIZ-19">
          <mxGeometry x="25" y="130" width="70" height="40" as="geometry" />
        </mxCell>
        <mxCell id="z9bAfdmkYlqTCzIjONIZ-23" value="12" style="rounded=0;whiteSpace=wrap;html=1;strokeColor=#000000;fillColor=#ffffff;gradientColor=none;fontSize=16;" vertex="1" parent="z9bAfdmkYlqTCzIjONIZ-19">
          <mxGeometry x="25" y="170" width="70" height="40" as="geometry" />
        </mxCell>
        <mxCell id="z9bAfdmkYlqTCzIjONIZ-24" value="&lt;div style=&quot;font-size: 16px&quot;&gt;&lt;b&gt;Table 2&lt;/b&gt;&lt;/div&gt;" style="text;html=1;strokeColor=none;fillColor=none;align=center;verticalAlign=middle;whiteSpace=wrap;rounded=0;" vertex="1" parent="z9bAfdmkYlqTCzIjONIZ-19">
          <mxGeometry width="120" height="20" as="geometry" />
        </mxCell>
        <mxCell id="z9bAfdmkYlqTCzIjONIZ-33" value="" style="group;fontSize=16;" vertex="1" connectable="0" parent="1">
          <mxGeometry x="180" y="1560" width="120" height="210" as="geometry" />
        </mxCell>
        <mxCell id="z9bAfdmkYlqTCzIjONIZ-34" value="&lt;font style=&quot;font-size: 16px&quot;&gt;4&lt;/font&gt;" style="rounded=0;whiteSpace=wrap;html=1;strokeColor=#000000;fillColor=#ffffff;gradientColor=none;" vertex="1" parent="z9bAfdmkYlqTCzIjONIZ-33">
          <mxGeometry x="25" y="50" width="70" height="40" as="geometry" />
        </mxCell>
        <mxCell id="z9bAfdmkYlqTCzIjONIZ-35" value="" style="rounded=0;whiteSpace=wrap;html=1;strokeColor=#000000;fillColor=#ffffff;gradientColor=none;fontSize=16;" vertex="1" parent="z9bAfdmkYlqTCzIjONIZ-33">
          <mxGeometry x="25" y="90" width="70" height="40" as="geometry" />
        </mxCell>
        <mxCell id="z9bAfdmkYlqTCzIjONIZ-36" value="10" style="rounded=0;whiteSpace=wrap;html=1;strokeColor=#000000;fillColor=#ffffff;gradientColor=none;fontSize=16;" vertex="1" parent="z9bAfdmkYlqTCzIjONIZ-33">
          <mxGeometry x="25" y="130" width="70" height="40" as="geometry" />
        </mxCell>
        <mxCell id="z9bAfdmkYlqTCzIjONIZ-37" value="" style="rounded=0;whiteSpace=wrap;html=1;strokeColor=#000000;fillColor=#ffffff;gradientColor=none;" vertex="1" parent="z9bAfdmkYlqTCzIjONIZ-33">
          <mxGeometry x="25" y="170" width="70" height="40" as="geometry" />
        </mxCell>
        <mxCell id="z9bAfdmkYlqTCzIjONIZ-38" value="&lt;div style=&quot;font-size: 16px&quot;&gt;&lt;b&gt;Table 1&lt;/b&gt;&lt;/div&gt;" style="text;html=1;strokeColor=none;fillColor=none;align=center;verticalAlign=middle;whiteSpace=wrap;rounded=0;" vertex="1" parent="z9bAfdmkYlqTCzIjONIZ-33">
          <mxGeometry width="120" height="20" as="geometry" />
        </mxCell>
        <mxCell id="z9bAfdmkYlqTCzIjONIZ-39" value="" style="group;fontSize=16;" vertex="1" connectable="0" parent="1">
          <mxGeometry x="415" y="1560" width="120" height="210" as="geometry" />
        </mxCell>
        <mxCell id="z9bAfdmkYlqTCzIjONIZ-40" value="" style="rounded=0;whiteSpace=wrap;html=1;strokeColor=#000000;fillColor=#ffffff;gradientColor=none;fontSize=16;" vertex="1" parent="z9bAfdmkYlqTCzIjONIZ-39">
          <mxGeometry x="25" y="50" width="70" height="40" as="geometry" />
        </mxCell>
        <mxCell id="z9bAfdmkYlqTCzIjONIZ-41" value="" style="rounded=0;whiteSpace=wrap;html=1;strokeColor=#000000;fillColor=#ffffff;gradientColor=none;fontSize=16;" vertex="1" parent="z9bAfdmkYlqTCzIjONIZ-39">
          <mxGeometry x="25" y="90" width="70" height="40" as="geometry" />
        </mxCell>
        <mxCell id="z9bAfdmkYlqTCzIjONIZ-42" value="8" style="rounded=0;whiteSpace=wrap;html=1;strokeColor=#000000;fillColor=#ffffff;gradientColor=none;fontSize=16;" vertex="1" parent="z9bAfdmkYlqTCzIjONIZ-39">
          <mxGeometry x="25" y="130" width="70" height="40" as="geometry" />
        </mxCell>
        <mxCell id="z9bAfdmkYlqTCzIjONIZ-43" value="12" style="rounded=0;whiteSpace=wrap;html=1;strokeColor=#000000;fillColor=#ffffff;gradientColor=none;fontSize=16;" vertex="1" parent="z9bAfdmkYlqTCzIjONIZ-39">
          <mxGeometry x="25" y="170" width="70" height="40" as="geometry" />
        </mxCell>
        <mxCell id="z9bAfdmkYlqTCzIjONIZ-44" value="&lt;div style=&quot;font-size: 16px&quot;&gt;&lt;b&gt;Table 2&lt;/b&gt;&lt;/div&gt;" style="text;html=1;strokeColor=none;fillColor=none;align=center;verticalAlign=middle;whiteSpace=wrap;rounded=0;" vertex="1" parent="z9bAfdmkYlqTCzIjONIZ-39">
          <mxGeometry width="120" height="20" as="geometry" />
        </mxCell>
        <mxCell id="z9bAfdmkYlqTCzIjONIZ-45" value="" style="group;fontSize=16;" vertex="1" connectable="0" parent="1">
          <mxGeometry x="180" y="1790" width="120" height="210" as="geometry" />
        </mxCell>
        <mxCell id="z9bAfdmkYlqTCzIjONIZ-46" value="&lt;font style=&quot;font-size: 16px&quot;&gt;12&lt;/font&gt;" style="rounded=0;whiteSpace=wrap;html=1;strokeColor=#000000;fillColor=#ffffff;gradientColor=none;" vertex="1" parent="z9bAfdmkYlqTCzIjONIZ-45">
          <mxGeometry x="25" y="50" width="70" height="40" as="geometry" />
        </mxCell>
        <mxCell id="z9bAfdmkYlqTCzIjONIZ-47" value="" style="rounded=0;whiteSpace=wrap;html=1;strokeColor=#000000;fillColor=#ffffff;gradientColor=none;fontSize=16;" vertex="1" parent="z9bAfdmkYlqTCzIjONIZ-45">
          <mxGeometry x="25" y="90" width="70" height="40" as="geometry" />
        </mxCell>
        <mxCell id="z9bAfdmkYlqTCzIjONIZ-48" value="10" style="rounded=0;whiteSpace=wrap;html=1;strokeColor=#000000;fillColor=#ffffff;gradientColor=none;fontSize=16;" vertex="1" parent="z9bAfdmkYlqTCzIjONIZ-45">
          <mxGeometry x="25" y="130" width="70" height="40" as="geometry" />
        </mxCell>
        <mxCell id="z9bAfdmkYlqTCzIjONIZ-49" value="" style="rounded=0;whiteSpace=wrap;html=1;strokeColor=#000000;fillColor=#ffffff;gradientColor=none;" vertex="1" parent="z9bAfdmkYlqTCzIjONIZ-45">
          <mxGeometry x="25" y="170" width="70" height="40" as="geometry" />
        </mxCell>
        <mxCell id="z9bAfdmkYlqTCzIjONIZ-50" value="&lt;div style=&quot;font-size: 16px&quot;&gt;&lt;b&gt;Table 1&lt;/b&gt;&lt;/div&gt;" style="text;html=1;strokeColor=none;fillColor=none;align=center;verticalAlign=middle;whiteSpace=wrap;rounded=0;" vertex="1" parent="z9bAfdmkYlqTCzIjONIZ-45">
          <mxGeometry width="120" height="20" as="geometry" />
        </mxCell>
        <mxCell id="z9bAfdmkYlqTCzIjONIZ-51" value="" style="group;fontSize=16;" vertex="1" connectable="0" parent="1">
          <mxGeometry x="415" y="1790" width="120" height="210" as="geometry" />
        </mxCell>
        <mxCell id="z9bAfdmkYlqTCzIjONIZ-52" value="" style="rounded=0;whiteSpace=wrap;html=1;strokeColor=#000000;fillColor=#ffffff;gradientColor=none;fontSize=16;" vertex="1" parent="z9bAfdmkYlqTCzIjONIZ-51">
          <mxGeometry x="25" y="50" width="70" height="40" as="geometry" />
        </mxCell>
        <mxCell id="z9bAfdmkYlqTCzIjONIZ-53" value="4" style="rounded=0;whiteSpace=wrap;html=1;strokeColor=#000000;fillColor=#ffffff;gradientColor=none;fontSize=16;" vertex="1" parent="z9bAfdmkYlqTCzIjONIZ-51">
          <mxGeometry x="25" y="90" width="70" height="40" as="geometry" />
        </mxCell>
        <mxCell id="z9bAfdmkYlqTCzIjONIZ-54" value="8" style="rounded=0;whiteSpace=wrap;html=1;strokeColor=#000000;fillColor=#ffffff;gradientColor=none;fontSize=16;" vertex="1" parent="z9bAfdmkYlqTCzIjONIZ-51">
          <mxGeometry x="25" y="130" width="70" height="40" as="geometry" />
        </mxCell>
        <mxCell id="z9bAfdmkYlqTCzIjONIZ-55" value="28" style="rounded=0;whiteSpace=wrap;html=1;strokeColor=#000000;fillColor=#ffffff;gradientColor=none;fontSize=16;" vertex="1" parent="z9bAfdmkYlqTCzIjONIZ-51">
          <mxGeometry x="25" y="170" width="70" height="40" as="geometry" />
        </mxCell>
        <mxCell id="z9bAfdmkYlqTCzIjONIZ-56" value="&lt;div style=&quot;font-size: 16px&quot;&gt;&lt;b&gt;Table 2&lt;/b&gt;&lt;/div&gt;" style="text;html=1;strokeColor=none;fillColor=none;align=center;verticalAlign=middle;whiteSpace=wrap;rounded=0;" vertex="1" parent="z9bAfdmkYlqTCzIjONIZ-51">
          <mxGeometry width="120" height="20" as="geometry" />
        </mxCell>
      </root>
    </mxGraphModel>
  </diagram>
</mxfile>
